<?xml version="1.0" encoding="UTF-8"?><svg id="b" xmlns="http://www.w3.org/2000/svg" viewBox="0 0 54.22 21.39"><defs><style>.d{fill:#fff;}</style></defs><g id="c"><path class="d" d="m49.46,21.25c-.25.07-.6.11-.92.11-.95,0-1.34-.35-1.31-.95.04-.78.56-1.38,1.76-1.38.25,0,.56.04.81.11l-.18.6-.71-.11c-.6,0-.71.18-.81.56v.18c0,.28.11.42.53.42h.21l.11-.64h.71l-.21,1.09Zm-3.35.07l-1.06-1.24-.04.11-.21,1.13h-.78l.42-2.22h.64l.95,1.16v-.11l.25-1.06h.71l-.39,2.22h-.49Zm-3.07-2.22h.81l-.35,2.22h-.88l.42-2.22Zm-1.84,2.22l.14-.81h-.92l-.14.81h-.81l.42-2.22h.81l-.18.81h.92l.18-.81h.78l-.35,2.22h-.85Zm-2.26-.07c-.25.07-.6.11-.92.11-.95,0-1.34-.35-1.31-.95.04-.78.56-1.38,1.76-1.38.25,0,.56.04.81.11l-.18.6-.71-.11c-.6,0-.71.18-.81.56v.18c0,.28.11.42.53.42h.21l.11-.64h.71l-.21,1.09Zm-3.32-2.12h.81l-.35,2.19h-.88l.42-2.19Zm-.78,1.62l-.11.56h-2.19l.42-2.22h2.12l-.14.6h-1.34v.25h1.09l-.11.53h-1.13l-.04.28h1.41Zm-3.88-1.66l.11,1.41v.11l.04-.11.71-1.41h.74l-1.16,2.22h-.95l-.11-1.41v-.11.11l-.67,1.41h-.95l-.35-2.22h.85l.11,1.41v.11l.04-.11.71-1.41h.92Zm-4.24,1.66l-.11.56h-2.19l.39-2.22h2.15l-.11.6h-1.34v.25h1.09l-.11.53h-1.13l-.07.28h1.41Zm-4.41,0h.39c.42,0,.56-.14.64-.53l.04-.18c0-.25-.14-.35-.49-.35h-.35l-.21,1.06Zm.74-1.66c.85,0,1.16.35,1.16.92v.21c-.18.74-.71,1.09-1.59,1.09h-1.24l.42-2.22h1.24Zm-2.68,0h.81l-.35,2.22h-.85l.39-2.22Zm-2.01,0l.14,1.41v.11l.04-.11.71-1.41h.74l-1.16,2.22h-.95l-.11-1.41v-.11.11l-.67,1.41h-.95l-.35-2.22h.85l.11,1.41v.11l.04-.11.71-1.41h.88Zm-4.87,1.66h.39c.42,0,.56-.11.64-.49l.04-.18c0-.25-.14-.35-.49-.35h-.35l-.21,1.02Zm.74-1.62c.85,0,1.16.35,1.16.92v.21c-.18.74-.71,1.09-1.59,1.09h-1.2l.42-2.22h1.2Zm-1.94,1.62l-.11.6h-2.05l.42-2.22h.81l-.32,1.62h1.24Zm-4.06-.56h.35c.28,0,.42-.07.42-.32,0-.14-.07-.18-.28-.18h-.39l-.11.49Zm.6-1.06c.71,0,1.06.25,1.06.67-.04.32-.28.64-.64.71l.56.88h-.99l-.32-.71h-.35l-.14.71h-.78l.39-2.26h1.2Zm-2.68.92c0-.28-.11-.35-.46-.35-.42,0-.6.14-.67.53v.18c0,.28.07.39.42.39.42,0,.6-.18.71-.56v-.18m-.78,1.34c-.88,0-1.24-.42-1.2-.95.04-.71.56-1.34,1.62-1.34.88,0,1.24.39,1.2.95v.18c-.14.64-.64,1.16-1.62,1.16m-2.79-2.26l.14,1.41v.11l.04-.11.71-1.41h.74l-1.16,2.22h-.92l-.11-1.41v-.11l-.07.11-.64,1.41H.35l-.35-2.22h.85l.11,1.41v.11l.04-.11.71-1.41h.88ZM32.37,1.27h4.45l-2.47,1.98-1.98-1.98Zm-3.39-1.27l5.19,5.22L40.7.04l-11.72-.04Zm23.86,12.57h.28l.42,1.24.39-1.24h.28v1.48h-.18v-1.16l-.35,1.16h-.25l-.42-1.16v1.16h-.18v-1.48Zm-1.41,0h1.16v.18h-.49v1.31h-.18v-1.31h-.49v-.18Zm-7.66,0h2.54l2.37,3.88.74-3.88h1.66l-1.06,5.37h-2.54l-2.37-3.88-.71,3.88h-1.62l.99-5.37Zm-6.71,0h5.86l-.25,1.24h-4.24l-.14.85h3.99l-.21,1.13h-3.99l-.14.85h4.31l-.25,1.27h-5.97l1.02-5.33Zm-5.01,0h1.66l-.71,3.99h2.54l-.25,1.41h-4.24l.99-5.4Zm-7.2,2.97c-.14.78,0,1.06.74,1.06h2.12c.74,0,.95-.28,1.09-1.06l.11-.56c.11-.67.04-1.06-.85-1.06h-1.87c-.88,0-1.13.39-1.24,1.06l-.11.56Zm-1.48-1.06c.28-1.59,1.24-1.98,2.72-1.98h2.65c1.48,0,2.29.35,2.01,1.94l-.32,1.59c-.28,1.59-1.24,1.94-2.72,1.94h-2.65c-1.48,0-2.29-.35-2.01-1.94l.32-1.55Zm-9.39-1.91h2.51l1.24,3.46,2.51-3.46h2.51l-1.02,5.37h-1.59l.71-3.85-2.82,3.88h-1.27l-1.41-3.88h-.07l-.71,3.88h-1.59l1.02-5.4Zm24.15-3.18h2.22l-.71-2.12-1.52,2.12Zm.6-3.46h2.26l2.05,5.65h-1.91l-.35-1.02h-3.53l-.71.99h-1.94l4.13-5.61Zm-5.54,0h1.76l-1.06,5.65h-1.73l1.02-5.65Zm-8.82,1.98c.28-1.66,1.27-2.05,2.82-2.05h2.05c2.47,0,2.68.53,2.37,2.12h-1.69l.04-.14c.07-.35-.21-.53-.71-.53h-1.91c-.95.04-1.2.42-1.31,1.13l-.11.6c-.14.85,0,1.13.78,1.13h1.84c.78,0,1.06-.07,1.16-.78h1.76l-.14.53c-.18.95-.67,1.69-2.4,1.69h-2.75c-1.55,0-2.4-.35-2.12-2.05l.32-1.66Zm-6.6-1.98h6.14l-.25,1.31h-4.34l-.14.92h4.02l-.21,1.16h-4.02l-.18.92h4.41l-.25,1.34h-6.14l.95-5.65Zm-6.57,2.82h2.86c.46,0,.71-.21.74-.64l.04-.18c.11-.49-.14-.6-.67-.6h-2.68l-.28,1.41Zm-1.24-2.82h5.22c1.34,0,1.55.71,1.41,1.66l-.11.39c-.14.74-.35,1.2-1.24,1.41.49.07.88.28.71,1.2l-.18.99h-1.73l.14-.67c.11-.6,0-.78-.56-.78h-2.72l-.28,1.45h-1.73l1.06-5.65Zm-6.32,2.82h2.68c.42,0,.64-.25.71-.6v-.21c.11-.35-.07-.6-.56-.6h-2.54l-.28,1.41Zm-1.2-2.82h4.69c1.66,0,1.91.85,1.69,1.94l-.11.53c-.18.85-.71,1.8-1.94,1.8h-3.42l-.25,1.41h-1.76l1.09-5.68Z"/></g></svg>